<?xml version="1.0" encoding="UTF-8"?>
<!DOCTYPE svg PUBLIC "-//W3C//DTD SVG 1.1//EN" "http://www.w3.org/Graphics/SVG/1.1/DTD/svg11.dtd">
<svg xmlns="http://www.w3.org/2000/svg" version="1.1" width="400px" height="119px" style="shape-rendering:geometricPrecision; text-rendering:geometricPrecision; image-rendering:optimizeQuality; fill-rule:evenodd; clip-rule:evenodd" xmlns:xlink="http://www.w3.org/1999/xlink">
<g><path style="opacity:0.918" fill="#575757" d="M 37.5,85.5 C 37.5,88.8333 37.5,92.1667 37.5,95.5C 26.1273,96.9983 14.794,96.8316 3.5,95C 2.3611,89.5838 2.19443,84.0838 3,78.5C 5.3806,77.565 7.8806,77.2317 10.5,77.5C 10.5,64.1667 10.5,50.8333 10.5,37.5C 7.63544,37.9452 5.13544,37.2785 3,35.5C 2.19443,29.9162 2.3611,24.4162 3.5,19C 14.8284,18.5001 26.1618,18.3335 37.5,18.5C 37.8293,24.5368 37.4959,30.5368 36.5,36.5C 34.2534,37.3742 31.9201,37.7076 29.5,37.5C 29.5,50.8333 29.5,64.1667 29.5,77.5C 32.1667,77.5 34.8333,77.5 37.5,77.5C 37.5,80.1667 37.5,82.8333 37.5,85.5 Z"/></g>
<g><path style="opacity:0.962" fill="#b96ac6" d="M 37.5,95.5 C 37.5,92.1667 37.5,88.8333 37.5,85.5C 43.6433,63.6061 49.81,41.6061 56,19.5C 62.0844,18.358 68.2511,18.1913 74.5,19C 82.0878,44.2627 88.7545,69.7627 94.5,95.5C 88.8388,96.7769 83.1721,96.7769 77.5,95.5C 74.8294,93.2363 73.4961,90.2363 73.5,86.5C 68.1254,86.1718 62.7921,86.5052 57.5,87.5C 56.8195,89.8889 55.9862,92.2222 55,94.5C 49.3036,96.7379 43.4703,97.0712 37.5,95.5 Z M 64.5,58.5 C 66.554,61.0076 67.554,64.0076 67.5,67.5C 65.8008,67.6602 64.1341,67.4935 62.5,67C 63.713,64.3135 64.3797,61.4802 64.5,58.5 Z"/></g>
<g><path style="opacity:0.95" fill="#b96ac6" d="M 148.5,18.5 C 148.492,21.5448 148.159,24.5448 147.5,27.5C 140.775,41.2893 134.275,55.2893 128,69.5C 127.5,78.1603 127.334,86.8269 127.5,95.5C 121.184,97.1253 115.017,96.7919 109,94.5C 108.667,85.8333 108.333,77.1667 108,68.5C 101.667,54.5 95.3333,40.5 89,26.5C 87.9207,23.9373 87.4207,21.2706 87.5,18.5C 93.5092,18.3338 99.5092,18.5005 105.5,19C 110.235,27.5247 114.402,36.3581 118,45.5C 121.853,37.619 125.519,29.619 129,21.5C 129.833,20.6667 130.667,19.8333 131.5,19C 137.157,18.5006 142.824,18.3339 148.5,18.5 Z"/></g>
<g><path style="opacity:0.933" fill="#585858" d="M 148.5,18.5 C 167.076,18.1741 185.576,18.5075 204,19.5C 204.667,35.1667 204.667,50.8333 204,66.5C 201.2,67.1253 198.366,67.792 195.5,68.5C 198.391,75.9498 201.558,83.2831 205,90.5C 205.494,92.1341 205.66,93.8008 205.5,95.5C 199.45,96.9956 193.45,96.8289 187.5,95C 182.765,86.4753 178.598,77.6419 175,68.5C 172.281,67.5562 169.448,67.2229 166.5,67.5C 166.806,76.5542 166.472,85.5542 165.5,94.5C 159.657,96.819 153.657,97.1524 147.5,95.5C 147.5,72.8333 147.5,50.1667 147.5,27.5C 148.159,24.5448 148.492,21.5448 148.5,18.5 Z M 166.5,37.5 C 172.833,37.5 179.167,37.5 185.5,37.5C 185.5,41.1667 185.5,44.8333 185.5,48.5C 179.167,48.5 172.833,48.5 166.5,48.5C 166.5,44.8333 166.5,41.1667 166.5,37.5 Z"/></g>
<g><path style="opacity:0.955" fill="#575757" d="M 209.5,18.5 C 229.833,18.5 250.167,18.5 270.5,18.5C 270.5,44.1667 270.5,69.8333 270.5,95.5C 251.198,96.6295 231.864,96.7962 212.5,96C 211.234,95.6905 210.067,95.1905 209,94.5C 208.177,69.0944 208.344,43.7611 209.5,18.5 Z M 227.5,37.5 C 235.5,37.5 243.5,37.5 251.5,37.5C 251.5,50.8333 251.5,64.1667 251.5,77.5C 243.5,77.5 235.5,77.5 227.5,77.5C 227.5,64.1667 227.5,50.8333 227.5,37.5 Z"/></g>
<g><path style="opacity:0.926" fill="#585858" d="M 275.5,18.5 C 295.178,18.167 314.845,18.5004 334.5,19.5C 335.618,24.7798 335.784,30.1131 335,35.5C 334.5,36 334,36.5 333.5,37C 327.175,37.4995 320.842,37.6662 314.5,37.5C 314.667,56.5029 314.5,75.5029 314,94.5C 307.991,96.8243 301.825,97.1577 295.5,95.5C 295.5,76.1667 295.5,56.8333 295.5,37.5C 289.158,37.6662 282.825,37.4995 276.5,37C 276,36.5 275.5,36 275,35.5C 274.215,29.7507 274.382,24.084 275.5,18.5 Z"/></g>
<g><path style="opacity:0.915" fill="#585858" d="M 340.5,18.5 C 358.836,18.3334 377.17,18.5001 395.5,19C 396.814,26.7749 396.814,34.6083 395.5,42.5C 390.22,43.6178 384.887,43.7845 379.5,43C 377.808,41.5993 377.141,39.7659 377.5,37.5C 371.167,37.5 364.833,37.5 358.5,37.5C 358.5,40.8333 358.5,44.1667 358.5,47.5C 370.505,47.3335 382.505,47.5001 394.5,48C 395,48.5 395.5,49 396,49.5C 396.667,64.5 396.667,79.5 396,94.5C 394.933,95.1905 393.766,95.6905 392.5,96C 374.802,96.7925 357.135,96.6258 339.5,95.5C 339.185,87.5803 339.518,79.747 340.5,72C 346.196,71.1701 351.863,71.3368 357.5,72.5C 358.309,74.0709 358.643,75.7376 358.5,77.5C 364.833,77.5 371.167,77.5 377.5,77.5C 377.5,73.8333 377.5,70.1667 377.5,66.5C 364.833,66.5 352.167,66.5 339.5,66.5C 339.183,50.4225 339.516,34.4225 340.5,18.5 Z"/></g>
</svg>
